<?xml version="1.0" encoding="utf-8"?><svg xml:space="preserve" viewBox="0 0 100 100" y="0" x="0" xmlns="http://www.w3.org/2000/svg" id="圖層_1" version="1.1" width="200px" height="200px" xmlns:xlink="http://www.w3.org/1999/xlink" style="width:100%;height:100%;background-color:rgb(255, 255, 255);animation-play-state:paused" ><g class="ldl-scale" style="transform-origin:50% 50% 0px;transform:rotate(0deg) scale(0.8);animation-play-state:paused" ><circle stroke-miterlimit="10" stroke-width="3.306" stroke="#333" fill="#f5e6c8" r="4.535" cy="35.133" cx="50" style="stroke:rgb(51, 51, 51);fill:rgb(255, 255, 255);animation-play-state:paused" ></circle>
<circle stroke-miterlimit="10" stroke-width="3.306" stroke="#333" fill="#f5e6c8" r="6.67" cy="79.33" cx="50" style="stroke:rgb(51, 51, 51);fill:rgb(255, 255, 255);animation-play-state:paused" ></circle>
<path stroke-miterlimit="10" stroke-width="3.306" stroke="#333" fill="#f5e6c8" d="M72.522 74.675a5.279 5.279 0 0 0-.078-.954c-.013-.074-.032-.146-.048-.219a3.977 3.977 0 0 0-.202-.698 5.228 5.228 0 0 0-.17-.408c-.036-.076-.071-.151-.11-.225a4.94 4.94 0 0 0-.236-.397c-.039-.06-.075-.123-.117-.182a5.198 5.198 0 0 0-.908-.983c-.055-.046-.114-.086-.17-.13-.085-.066-.168-.136-.257-.196-.677-.457-1.339-.941-1.893-1.54a22.49 22.49 0 0 1-.824-.953l-.06-.079a21.749 21.749 0 0 1-.718-.945c-.083-.116-.161-.236-.241-.354a20.183 20.183 0 0 1-.474-.717c-.087-.139-.17-.281-.253-.422a20.783 20.783 0 0 1-.629-1.145 17.217 17.217 0 0 1-.345-.726c-.068-.149-.136-.298-.2-.449a19.417 19.417 0 0 1-.315-.811c-.048-.132-.101-.262-.146-.395-.139-.408-.266-.82-.376-1.24-.123-.472-.232-.933-.32-1.373s-.156-.858-.198-1.244l-1.077-10.014v-.001l-.035-.321c-.549-5.101-4.197-9.173-8.945-10.455-.082-.023-.162-.048-.245-.069-.203-.05-.41-.089-.616-.129-.184-.036-.368-.073-.555-.101-.168-.024-.339-.04-.509-.058-.144-.015-.285-.039-.431-.049-.07-.005-.139 0-.209-.003-.202-.01-.406-.01-.61-.01-.204 0-.408 0-.61.01-.07.003-.139-.001-.209.003-.146.01-.287.034-.431.049-.17.017-.341.033-.509.058-.187.028-.371.064-.555.101-.207.04-.413.079-.616.129-.082.021-.163.047-.245.069-4.748 1.282-8.396 5.354-8.945 10.455l-.035.321v.001L36.77 57.89a13.58 13.58 0 0 1-.198 1.244c-.088.44-.197.901-.32 1.373-.11.42-.237.832-.376 1.24-.045.133-.098.263-.146.395-.1.273-.203.544-.315.811-.064.151-.132.3-.2.449a17.258 17.258 0 0 1-.579 1.174c-.127.235-.259.467-.395.697-.084.141-.166.283-.253.422-.152.243-.311.48-.474.717-.081.118-.158.237-.241.354-.23.321-.469.636-.718.945l-.06.079c-.264.326-.541.642-.824.953-.555.599-1.216 1.083-1.893 1.54-.09.061-.172.131-.257.196-.057.044-.115.084-.17.13a5.262 5.262 0 0 0-.908.983c-.042.059-.078.121-.117.182a4.94 4.94 0 0 0-.236.397c-.039.074-.074.149-.11.225a5.228 5.228 0 0 0-.372 1.106c-.016.073-.035.145-.048.219a5.119 5.119 0 0 0-.078.954c.001.06-.004.119-.001.18.11 2.405 2.176 4.261 4.583 4.261H67.943c2.408 0 4.474-1.856 4.583-4.261 0-.061-.005-.12-.004-.18z" style="stroke:rgb(51, 51, 51);fill:rgb(255, 255, 255);animation-play-state:paused" ></path>
<path d="M24.074 13.436l11.571 13.789" stroke-miterlimit="10" stroke-width="3.5" stroke="#333" fill="none" style="stroke:rgb(51, 51, 51);animation-play-state:paused" ></path>
<path d="M15.07 24.167l15.589 9" stroke-miterlimit="10" stroke-width="3.5" stroke="#333" fill="none" style="stroke:rgb(51, 51, 51);animation-play-state:paused" ></path>
<path d="M10.279 37.33l17.727 3.125" stroke-miterlimit="10" stroke-width="3.5" stroke="#333" fill="none" style="stroke:rgb(51, 51, 51);animation-play-state:paused" ></path>
<path d="M10.279 51.337l17.727-3.126" stroke-miterlimit="10" stroke-width="3.5" stroke="#333" fill="none" style="stroke:rgb(51, 51, 51);animation-play-state:paused" ></path>
<path d="M89.721 51.337l-17.727-3.126" stroke-miterlimit="10" stroke-width="3.5" stroke="#333" fill="none" style="stroke:rgb(51, 51, 51);animation-play-state:paused" ></path>
<path d="M89.721 37.33l-17.727 3.125" stroke-miterlimit="10" stroke-width="3.5" stroke="#333" fill="none" style="stroke:rgb(51, 51, 51);animation-play-state:paused" ></path>
<path d="M84.93 24.167l-15.589 9" stroke-miterlimit="10" stroke-width="3.5" stroke="#333" fill="none" style="stroke:rgb(51, 51, 51);animation-play-state:paused" ></path>
<path d="M75.926 13.436L64.355 27.225" stroke-miterlimit="10" stroke-width="3.5" stroke="#333" fill="none" style="stroke:rgb(51, 51, 51);animation-play-state:paused" ></path>
<metadata xmlns:d="https://loading.io/stock/" style="animation-play-state:paused" ><d:name style="animation-play-state:paused" >siren</d:name>
<d:tags style="animation-play-state:paused" >siren,signal,ring,bell,volume,noise,sound,music,temporal</d:tags>
<d:license style="animation-play-state:paused" >by</d:license>
<d:slug style="animation-play-state:paused" >bwze6n</d:slug></metadata></g><!-- generated by https://loading.io/ --></svg>